<?xml version="1.0" encoding="UTF-8" standalone="no"?>
<!-- Created with Inkscape (http://www.inkscape.org/) -->

<svg
   width="70.373863mm"
   height="157.14732mm"
   viewBox="0 0 70.37386 157.14732"
   version="1.1"
   id="svg5"
   inkscape:version="1.1.2 (0a00cf5339, 2022-02-04)"
   sodipodi:docname="diagram.svg"
   xmlns:inkscape="http://www.inkscape.org/namespaces/inkscape"
   xmlns:sodipodi="http://sodipodi.sourceforge.net/DTD/sodipodi-0.dtd"
   xmlns="http://www.w3.org/2000/svg"
   xmlns:svg="http://www.w3.org/2000/svg">
  <sodipodi:namedview
     id="namedview7"
     pagecolor="#ffffff"
     bordercolor="#666666"
     borderopacity="1.0"
     inkscape:pageshadow="2"
     inkscape:pageopacity="0.0"
     inkscape:pagecheckerboard="0"
     inkscape:document-units="mm"
     showgrid="false"
     inkscape:object-nodes="false"
     inkscape:zoom="1.0998546"
     inkscape:cx="101.83164"
     inkscape:cy="239.12252"
     inkscape:window-width="1922"
     inkscape:window-height="1397"
     inkscape:window-x="0"
     inkscape:window-y="41"
     inkscape:window-maximized="1"
     inkscape:current-layer="layer1"
     fit-margin-top="0"
     fit-margin-left="0"
     fit-margin-right="0"
     fit-margin-bottom="0"
     width="70.37386mm" />
  <defs
     id="defs2">
    <rect
       x="194.11658"
       y="71.827675"
       width="369.5943"
       height="109.10533"
       id="rect24689" />
    <rect
       x="736.91559"
       y="523.70557"
       width="223.66592"
       height="196.3896"
       id="rect20241" />
    <linearGradient
       id="f"
       x1="407.97198"
       y1="103.25"
       x2="326.67099"
       y2="997.55902"
       gradientUnits="userSpaceOnUse"
       gradientTransform="matrix(0.01629828,0,0,0.01629828,50.027095,29.486892)">
      <stop
         stop-color="#fff"
         id="stop1921" />
      <stop
         offset="1"
         stop-color="#fff"
         stop-opacity="0"
         id="stop1923" />
    </linearGradient>
    <linearGradient
       id="e"
       x1="326.38"
       y1="409.461"
       x2="406.02399"
       y2="463.62"
       gradientUnits="userSpaceOnUse"
       gradientTransform="matrix(0.01629828,0,0,0.01629828,50.027095,29.486892)">
      <stop
         stop-color="#FBB040"
         id="stop1916" />
      <stop
         offset="1"
         stop-color="#FB8840"
         id="stop1918" />
    </linearGradient>
    <linearGradient
       id="d"
       x1="399.25101"
       y1="514.93799"
       x2="382.42999"
       y2="273.83899"
       gradientUnits="userSpaceOnUse"
       gradientTransform="matrix(0.01629828,0,0,0.01629828,50.027095,29.486892)">
      <stop
         stop-color="#FF6533"
         id="stop1905" />
      <stop
         offset=".157"
         stop-color="#FF5633"
         id="stop1907" />
      <stop
         offset=".434"
         stop-color="#FF4333"
         id="stop1909" />
      <stop
         offset=".714"
         stop-color="#FF3733"
         id="stop1911" />
      <stop
         offset="1"
         stop-color="#F33"
         id="stop1913" />
    </linearGradient>
    <linearGradient
       id="c"
       x1="297.30899"
       y1="413.59299"
       x2="353.379"
       y2="472.466"
       gradientUnits="userSpaceOnUse"
       gradientTransform="matrix(0.01629828,0,0,0.01629828,50.027095,29.486892)">
      <stop
         stop-color="#FF6533"
         id="stop1894" />
      <stop
         offset=".157"
         stop-color="#FF5633"
         id="stop1896" />
      <stop
         offset=".434"
         stop-color="#FF4333"
         id="stop1898" />
      <stop
         offset=".714"
         stop-color="#FF3733"
         id="stop1900" />
      <stop
         offset="1"
         stop-color="#F33"
         id="stop1902" />
    </linearGradient>
    <linearGradient
       id="b"
       x1="284.68799"
       y1="354.50201"
       x2="671.56897"
       y2="654.474"
       gradientUnits="userSpaceOnUse"
       gradientTransform="matrix(0.01629828,0,0,0.01629828,50.027095,29.486892)">
      <stop
         stop-color="#BF3338"
         id="stop1889" />
      <stop
         offset="1"
         stop-color="#F33"
         id="stop1891" />
    </linearGradient>
    <linearGradient
       id="a"
       x1="318.45099"
       y1="426.05899"
       x2="534.31897"
       y2="476.522"
       gradientUnits="userSpaceOnUse"
       gradientTransform="matrix(0.01629828,0,0,0.01629828,50.027095,29.486892)">
      <stop
         stop-color="#FF6533"
         id="stop1878" />
      <stop
         offset=".157"
         stop-color="#FF5633"
         id="stop1880" />
      <stop
         offset=".434"
         stop-color="#FF4333"
         id="stop1882" />
      <stop
         offset=".714"
         stop-color="#FF3733"
         id="stop1884" />
      <stop
         offset="1"
         stop-color="#F33"
         id="stop1886" />
    </linearGradient>
  </defs>
  <g
     inkscape:label="Layer 1"
     inkscape:groupmode="layer"
     id="layer1"
     transform="translate(-33.053273,-28.520808)">
    <rect
       style="fill:#fdffff;fill-opacity:1;stroke:#cccccc;stroke-width:0.855093;stroke-linecap:butt;stroke-linejoin:miter;stroke-miterlimit:4;stroke-dasharray:none;stroke-opacity:1"
       id="rect55"
       width="19.881285"
       height="20.222744"
       x="48.810734"
       y="124.66297"
       ry="3.4209492" />
    <rect
       style="fill:#fdffff;fill-opacity:1;stroke:#cccccc;stroke-width:0.855093;stroke-linecap:butt;stroke-linejoin:miter;stroke-miterlimit:4;stroke-dasharray:none;stroke-opacity:1"
       id="rect55-6"
       width="19.881285"
       height="20.222744"
       x="78.34565"
       y="124.48311"
       ry="3.4209492" />
    <rect
       style="fill:#fdffff;fill-opacity:1;stroke:#cccccc;stroke-width:0.855093;stroke-linecap:butt;stroke-linejoin:miter;stroke-miterlimit:4;stroke-dasharray:none;stroke-opacity:1"
       id="rect55-6-7"
       width="19.881285"
       height="20.222744"
       x="49.59848"
       y="57.606865"
       ry="3.4209492" />
    <rect
       style="fill:#fdffff;fill-opacity:1;stroke:#000000;stroke-width:0.855093;stroke-linecap:round;stroke-linejoin:miter;stroke-miterlimit:4;stroke-dasharray:none;stroke-opacity:0.2275"
       id="rect55-3"
       width="19.881285"
       height="20.222744"
       x="33.48082"
       y="165.01784"
       ry="3.4209492" />
    <rect
       style="fill:#fdffff;fill-opacity:1;stroke:#000000;stroke-width:0.855093;stroke-linecap:round;stroke-linejoin:miter;stroke-miterlimit:4;stroke-dasharray:none;stroke-opacity:0.2275"
       id="rect55-3-6"
       width="19.881285"
       height="20.222744"
       x="63.190235"
       y="164.657"
       ry="3.4209492" />
    <rect
       style="fill:#fdffff;fill-opacity:1;stroke:#000000;stroke-width:0.855093;stroke-linecap:round;stroke-linejoin:miter;stroke-miterlimit:4;stroke-dasharray:none;stroke-opacity:0.2275"
       id="rect55-3-6-5"
       width="19.881285"
       height="20.222744"
       x="93.140205"
       y="-4.6987076"
       ry="3.4209492" />
    <rect
       style="font-variation-settings:normal;opacity:1;vector-effect:none;fill:#fdffff;fill-opacity:1;stroke:#cccccc;stroke-width:0.855093;stroke-linecap:butt;stroke-linejoin:miter;stroke-miterlimit:4;stroke-dasharray:none;stroke-dashoffset:0;stroke-opacity:1;-inkscape-stroke:none;stop-color:#000000;stop-opacity:1"
       id="rect55-3-6-5-2"
       width="20.197393"
       height="6.8636885"
       x="63.513306"
       y="98.32592"
       ry="1.1610852" />
    <rect
       style="fill:#fdffff;fill-opacity:1;stroke:#000000;stroke-width:0.855093;stroke-linecap:round;stroke-linejoin:miter;stroke-miterlimit:4;stroke-dasharray:none;stroke-opacity:0.2275"
       id="rect55-3-6-5-3"
       width="19.881285"
       height="20.222744"
       x="122.12794"
       y="-4.9392853"
       ry="3.4209492" />
    <g
       id="g2307"
       transform="translate(2.1650595,98.510178)">
      <path
         d="m 61.534913,33.779631 c 0,-0.767616 -0.20104,-1.487267 -0.555152,-2.110953 -0.938961,-0.966389 -2.981401,-1.190279 -3.488568,-0.0046 -0.520894,1.215412 0.874991,2.567892 1.484985,2.460503 0.776762,-0.137069 -0.137086,-1.919058 -0.137086,-1.919058 1.18798,2.238911 0.913848,1.553536 -1.233685,3.609662 -2.14751,2.056127 -4.340717,6.394568 -4.660555,6.577336 -0.01373,0.0091 -0.02746,0.01601 -0.04343,0.02285 h 8.423295 c 0.148494,0 0.244458,-0.157637 0.178207,-0.290142 L 59.300565,37.76622 c -0.04793,-0.09367 -0.01373,-0.210182 0.07768,-0.262728 1.288504,-0.740203 2.156654,-2.12924 2.156654,-3.723881 z"
         fill="url(#a)"
         id="path1866"
         style="fill:url(#a);stroke-width:0.0162983" />
      <path
         d="m 61.534913,33.779631 c 0,-0.767616 -0.20104,-1.487267 -0.555152,-2.110953 -0.938961,-0.966389 -2.981401,-1.190279 -3.488568,-0.0046 -0.520894,1.215412 0.874991,2.567892 1.484985,2.460503 0.776762,-0.137069 -0.137086,-1.919058 -0.137086,-1.919058 1.18798,2.238911 0.913848,1.553536 -1.233685,3.609662 -2.14751,2.056127 -4.340717,6.394568 -4.660555,6.577336 -0.01373,0.0091 -0.02746,0.01601 -0.04343,0.02285 h 8.423295 c 0.148494,0 0.244458,-0.157637 0.178207,-0.290142 L 59.300565,37.76622 c -0.04793,-0.09367 -0.01373,-0.210182 0.07768,-0.262728 1.288504,-0.740203 2.156654,-2.12924 2.156654,-3.723881 z"
         fill="url(#b)"
         id="path1868"
         style="fill:url(#b);stroke-width:0.0162983" />
      <path
         d="m 52.944852,42.392575 c 0.319853,-0.18277 2.513061,-4.523492 4.66057,-6.579619 2.147518,-2.056142 2.421666,-1.370767 1.233686,-3.609662 0,0 -4.546342,6.374015 -6.191246,9.526755"
         fill="url(#c)"
         id="path1870"
         style="fill:url(#c);stroke-width:0.0162983" />
      <path
         d="m 53.584543,36.681069 c 3.070494,-5.645224 3.472575,-6.214088 5.071797,-6.214088 0.840732,0 1.688305,0.379243 2.236609,1.053203 C 60.145885,30.316199 58.8231,29.509737 57.308425,29.486892 H 52.09271 c -0.109668,0 -0.198776,0.0891 -0.198776,0.198759 v 10.513696 c 0.310709,-0.801892 0.838452,-1.948753 1.690609,-3.518278 z"
         fill="url(#d)"
         id="path1872"
         style="fill:url(#d);stroke-width:0.0162983" />
      <path
         d="m 57.605422,35.81294 c -2.147525,2.056143 -4.340732,6.396865 -4.66057,6.579635 -0.319839,0.182768 -0.856718,0.205602 -1.142298,-0.114235 -0.303845,-0.340406 -0.776762,-0.890995 1.781989,-5.597255 3.070478,-5.645221 3.472575,-6.214085 5.071797,-6.214085 0.840732,0 1.688305,0.379244 2.236609,1.0532 0.0297,0.04799 0.05941,0.09823 0.08911,0.148494 -0.938977,-0.966379 -2.981394,-1.19027 -3.488584,-0.0046 -0.520894,1.215396 0.875006,2.567877 1.484985,2.460503 0.776762,-0.137068 -0.13707,-1.919058 -0.13707,-1.919058 1.1857,2.236614 0.911552,1.551238 -1.235966,3.607365 z"
         fill="url(#e)"
         id="path1874"
         style="fill:url(#e);stroke-width:0.0162983" />
      <path
         opacity="0.3"
         d="m 53.835842,36.932404 c 3.070486,-5.645236 3.472583,-6.214097 5.071797,-6.214097 0.692222,0 1.389028,0.258158 1.919059,0.724216 C 60.278395,30.816543 59.465079,30.467 58.65634,30.467 c -1.599222,0 -2.001319,0.568864 -5.071797,6.214085 -2.558751,4.70626 -2.085834,5.256849 -1.781989,5.597255 0.04343,0.04798 0.09367,0.0891 0.146206,0.123377 -0.267291,-0.388387 -0.386089,-1.290807 1.887082,-5.469313 z"
         fill="url(#f)"
         id="path1876"
         style="fill:url(#f);stroke-width:0.0162983" />
    </g>
    <g
       id="g2299"
       transform="translate(-38.249375,137.84209)">
      <rect
         x="75.454178"
         y="31.130608"
         width="12.433318"
         height="12.433318"
         rx="0.92959386"
         fill="#3178c6"
         id="rect2254"
         style="stroke-width:0.116199" />
      <path
         fill-rule="evenodd"
         clip-rule="evenodd"
         d="m 82.592178,40.439793 v 1.389859 c 0.226007,0.115851 0.493382,0.202768 0.802007,0.260635 0.308625,0.05798 0.633983,0.08692 0.975957,0.08692 0.33326,0 0.649787,-0.03184 0.949813,-0.09563 0.29991,-0.06368 0.562869,-0.168605 0.788876,-0.3149 0.226124,-0.146179 0.405071,-0.337326 0.536957,-0.573327 0.13177,-0.235884 0.197771,-0.527661 0.197771,-0.875096 0,-0.251921 -0.03777,-0.472699 -0.113062,-0.662452 -0.0753,-0.189638 -0.184059,-0.358243 -0.326055,-0.505932 -0.141995,-0.147689 -0.312227,-0.280156 -0.510695,-0.397517 -0.198585,-0.117246 -0.422385,-0.227983 -0.671632,-0.332214 -0.182549,-0.0753 -0.346273,-0.148387 -0.491174,-0.219384 -0.1449,-0.07088 -0.268072,-0.143274 -0.369514,-0.217176 -0.101441,-0.07379 -0.179644,-0.151989 -0.234722,-0.23449 -0.05508,-0.0825 -0.08262,-0.175926 -0.08262,-0.280157 0,-0.09551 0.02463,-0.181735 0.0739,-0.258427 0.04927,-0.07669 0.118756,-0.142576 0.208694,-0.197655 0.08982,-0.05496 0.199862,-0.09772 0.330354,-0.128051 0.130376,-0.03044 0.275276,-0.04567 0.434701,-0.04567 0.115851,0 0.238325,0.0087 0.367306,0.02603 0.128982,0.01743 0.25866,0.04416 0.389035,0.08041 0.130376,0.03614 0.257149,0.0818 0.380321,0.136766 0.123171,0.05508 0.23693,0.118756 0.341277,0.191148 V 35.97484 c -0.211599,-0.08111 -0.44272,-0.141182 -0.693361,-0.180341 -0.250642,-0.03904 -0.538235,-0.05857 -0.862896,-0.05857 -0.330354,0 -0.643279,0.03544 -0.938889,0.106439 -0.295611,0.07088 -0.555665,0.181619 -0.780278,0.332213 -0.224614,0.150595 -0.402166,0.34244 -0.532542,0.575536 -0.130375,0.233095 -0.195563,0.511741 -0.195563,0.836053 0,0.414134 0.119453,0.76738 0.358591,1.059853 0.239138,0.292474 0.602028,0.539978 1.088903,0.742746 0.191264,0.07809 0.369514,0.154893 0.534633,0.230191 0.165235,0.07518 0.307928,0.153383 0.428194,0.23449 0.120266,0.08111 0.215201,0.169418 0.284804,0.264934 0.06949,0.09563 0.104231,0.204162 0.104231,0.325822 0,0.08971 -0.02173,0.173021 -0.06519,0.249713 -0.04346,0.07669 -0.109343,0.143273 -0.197771,0.199746 -0.08843,0.05647 -0.198468,0.100629 -0.330354,0.132467 -0.131887,0.03184 -0.286199,0.04787 -0.462938,0.04787 -0.301421,0 -0.599936,-0.05287 -0.895431,-0.158612 -0.295611,-0.105625 -0.569493,-0.264237 -0.821645,-0.475603 z M 80.275514,36.981007 H 82.06289 V 35.83656 h -4.981925 v 1.144447 h 1.778661 v 5.095568 h 1.415888 z"
         fill="#ffffff"
         id="path2256"
         style="stroke-width:0.116199" />
    </g>
    <path
       style="fill:none;stroke:#cccccc;stroke-width:0.855;stroke-linecap:butt;stroke-linejoin:miter;stroke-miterlimit:4;stroke-dasharray:none;stroke-opacity:1"
       d="m 58.516729,145.41979 c 0.343387,17.43299 -14.757804,8.12616 -14.794568,19.30511"
       id="path2528"
       sodipodi:nodetypes="cc" />
    <path
       style="fill:none;stroke:#cccccc;stroke-width:0.855;stroke-linecap:butt;stroke-linejoin:miter;stroke-miterlimit:4;stroke-dasharray:none;stroke-opacity:1"
       d="m 58.396452,144.90821 c -0.343383,17.79384 14.757804,8.48701 14.794568,19.66596"
       id="path2528-7"
       sodipodi:nodetypes="cc" />
    <path
       style="fill:none;stroke:#cccccc;stroke-width:0.855;stroke-linecap:butt;stroke-linejoin:miter;stroke-miterlimit:4;stroke-dasharray:none;stroke-opacity:1"
       d="m 73.070735,105.2345 c 0.343387,17.43299 -14.757804,8.12616 -14.794568,19.30511"
       id="path2528-9"
       sodipodi:nodetypes="cc" />
    <path
       style="fill:none;stroke:#cccccc;stroke-width:0.855;stroke-linecap:butt;stroke-linejoin:miter;stroke-miterlimit:4;stroke-dasharray:none;stroke-opacity:1"
       d="m 72.950458,104.72292 c -0.343383,17.79383 14.757804,8.48701 14.794568,19.66595"
       id="path2528-7-1"
       sodipodi:nodetypes="cc" />
    <path
       style="fill:none;stroke:#cccccc;stroke-width:0.855;stroke-linecap:butt;stroke-linejoin:miter;stroke-miterlimit:4;stroke-dasharray:none;stroke-opacity:1"
       d="M 73.431579,97.559358 C 73.774966,80.126362 58.673774,89.433195 58.63701,78.254242"
       id="path2528-9-9"
       sodipodi:nodetypes="cc" />
    <path
       style="fill:none;stroke:#cccccc;stroke-width:0.855;stroke-linecap:butt;stroke-linejoin:miter;stroke-miterlimit:4;stroke-dasharray:none;stroke-opacity:1"
       d="M 73.311302,98.070934 C 72.967919,80.277102 88.069106,89.583925 88.105869,78.404982"
       id="path2528-7-1-2"
       sodipodi:nodetypes="cc" />
    <path
       style="fill:none;stroke:#cccccc;stroke-width:0.855;stroke-linecap:butt;stroke-linejoin:miter;stroke-miterlimit:4;stroke-dasharray:none;stroke-opacity:1"
       d="m 117.33416,-24.428477 c 0.34339,17.4329888 -14.7578,8.126163 -14.79457,19.3051138"
       id="path2528-9-3"
       sodipodi:nodetypes="cc" />
    <path
       style="fill:none;stroke:#cccccc;stroke-width:0.855;stroke-linecap:butt;stroke-linejoin:miter;stroke-miterlimit:4;stroke-dasharray:none;stroke-opacity:1"
       d="m 117.21389,-24.940053 c -0.34339,17.7938328 14.7578,8.487006 14.79456,19.6659498"
       id="path2528-7-1-6"
       sodipodi:nodetypes="cc" />
    <g
       id="g3812"
       transform="matrix(0.01681306,0,0,-0.01681306,45.328543,214.11742)">
      <path
         d="m 1877.4101,2131.662 c -3.1002,2.2065 -2.5847,9.3382 7.6115,31.5501 4.0029,8.721 13.1359,23.4035 29.0136,37.4349 1.8391,-5.7706 2.9611,-11.304 2.929,-16.4556 -0.2052,-34.3668 -24.7253,-47.2012 -39.5541,-52.5294 z m -130.5172,-29.7517 c -4.1563,-2.1746 -7.9665,-3.541 -9.7378,-2.4868 -1.2986,0.7756 1.7142,3.6386 1.7142,3.6386 0,0 21.1934,22.7972 29.5398,33.1789 4.8555,6.0364 10.4852,13.2019 16.6197,21.2165 0.05,-0.8009 0.077,-1.5947 0.077,-2.3796 -0.062,-27.3135 -26.4467,-45.7543 -38.2126,-53.1676 z m -169.422,80.838 c -9.8038,-23.9012 -30.3229,-85.048 -42.8113,-81.7709 -10.7206,2.8128 -17.2494,49.295 -2.1406,95.0406 7.6044,23.0271 23.8495,50.5423 33.3928,61.2219 15.3639,17.1851 32.2797,22.8059 36.3896,15.8384 5.239,-8.878 -18.6836,-75.3479 -24.8305,-90.33 z m -205.066,-139.4079 c -28.1478,-30.708 -67.4743,-42.3131 -84.3376,-32.5385 -18.2094,10.5586 -10.9975,55.7675 23.5456,88.354 21.0544,19.8587 48.2337,38.15 66.2647,49.4165 4.1028,2.4688 10.132,6.0953 17.4581,10.4852 1.2148,0.6921 1.8998,1.0756 1.8998,1.0756 l -0.027,0.046 c 1.4146,0.8455 2.863,1.7143 4.3596,2.6079 12.5687,-46.3824 0.3817,-87.2168 -29.1634,-119.4471 z m 655.0302,220.8313 c -34.1509,-0.1801 -63.73,-8.3785 -88.5248,-20.5993 -9.0689,18.0984 -18.2465,34.0207 -19.7877,45.8598 -1.7999,13.8209 -3.8852,22.0656 -1.7125,38.5301 2.1745,16.4645 11.7,39.7788 11.5608,41.5251 -0.1391,1.7464 -2.137,10.1338 -21.8337,10.2765 -19.6985,0.1409 -36.5483,-3.7888 -38.5301,-8.9903 -1.9836,-5.2016 -5.776,-16.9069 -8.136,-29.1117 -3.4498,-17.8612 -39.3275,-81.5608 -59.6985,-114.8858 -6.6625,13.0057 -12.3278,24.4738 -13.5087,33.5426 -1.7981,13.8209 -3.8851,22.0657 -1.7125,38.5319 2.1745,16.4628 11.7,39.7806 11.5609,41.527 -0.1392,1.7463 -2.1353,10.132 -21.8338,10.2747 -19.6985,0.1409 -36.5483,-3.7888 -38.5301,-8.9904 -1.9836,-5.2016 -4.101,-17.3546 -8.1359,-29.1117 -4.035,-11.7588 -51.7268,-118.0181 -64.2169,-145.56 -6.3646,-14.0332 -11.9034,-25.3068 -15.8134,-33.0075 -0.011,0.02 -0.025,0.043 -0.025,0.043 0,0 -0.2408,-0.5119 -0.6565,-1.3771 -3.3464,-6.5537 -5.3389,-10.1798 -5.3389,-10.1798 0,0 0.021,-0.05 0.059,-0.1357 -2.6543,-4.8129 -5.4995,-9.2828 -6.9087,-9.2828 -0.9846,0 -2.9557,12.8113 0.4299,30.3957 7.096,36.8605 24.1438,94.3453 23.9743,96.3253 -0.089,1.015 3.1681,11.031 -11.1327,16.2683 -13.9012,5.0874 -18.8512,-3.3982 -20.1195,-3.4249 -1.229,-0.027 -2.1423,-2.9986 -2.1423,-2.9986 0,0 15.4869,64.645 -29.5398,64.645 -28.1502,0 -67.1566,-30.7938 -86.3717,-58.7067 -12.1263,-6.6143 -38.0753,-20.7795 -65.6065,-35.9062 -10.5744,-5.808 -21.3646,-11.7463 -31.5965,-17.3831 -0.6957,0.7706 -1.3896,1.543 -2.1049,2.3064 -54.5975,58.2501 -155.5274,99.4506 -151.2441,177.7613 1.5567,28.4695 11.4525,103.432 193.9359,194.3631 149.4826,74.4881 269.1508,53.9904 289.8322,8.5623 29.5433,-64.9019 -63.9565,-185.5244 -219.1954,-202.9254 -59.1474,-6.6304 -90.2908,16.2915 -98.0378,24.8305 -8.1538,8.9868 -9.3703,9.3918 -12.4153,7.7061 -4.959,-2.7489 -1.8159,-10.6832 0,-15.4121 4.6361,-12.0638 23.655,-33.4552 56.0828,-44.0956 28.5265,-9.3614 97.97,-14.5041 181.9478,17.9807 94.0599,36.3825 167.5062,137.5919 145.9329,222.1905 -21.939,86.0417 -164.6022,114.3275 -299.6235,66.3574 -80.3586,-28.5479 -167.35,-73.3553 -229.8967,-131.8586 -74.3699,-69.563 -86.2294,-130.107 -81.3428,-155.4049 17.3635,-89.8876 141.2577,-148.4231 190.8703,-191.8052 -2.4492,-1.3503 -4.745,-2.6186 -6.8338,-3.7709 -24.8739,-12.3047 -119.3144,-61.7283 -142.9373,-113.9492 -26.796,-59.2349 4.2659,-101.7339 24.8305,-107.456 63.7144,-17.7293 129.0968,14.1596 164.2342,66.5693 35.1302,52.3978 30.8401,120.6243 14.7163,151.7677 -0.1998,0.3871 -0.4209,0.7653 -0.6261,1.1488 6.4217,3.8013 12.9718,7.6668 19.4631,11.4788 12.6596,7.4331 25.0856,14.3685 35.8705,20.2372 -6.0329,-16.5341 -10.4531,-36.3521 -12.7524,-64.9732 -2.7007,-33.6251 11.0792,-77.087 29.1116,-94.1864 7.9397,-7.5276 17.492,-7.7046 23.5462,-7.7046 20.9829,0 30.5583,17.4563 41.0988,38.1024 12.9308,25.3209 24.4024,54.7982 24.4024,54.7982 0,0 -14.3988,-79.6286 24.8324,-79.6286 14.2936,0 28.6728,18.5355 35.0767,27.9861 0.018,-0.1038 0.027,-0.1587 0.027,-0.1587 0,0 0.3728,0.6152 1.1006,1.8492 1.4841,2.2694 2.3243,3.7139 2.3243,3.7139 0,0 0.029,0.1498 0.075,0.4104 5.7457,9.9769 18.4891,32.7223 37.6008,70.2301 24.6914,48.4606 48.3749,109.1688 48.3749,109.1688 0,0 2.203,-14.8431 9.4185,-39.3864 4.2455,-14.4417 13.2644,-30.4049 20.38,-45.7135 -5.7278,-7.9469 -9.2491,-12.5116 -9.2491,-12.5116 0,0 0.034,-0.084 0.096,-0.2373 -4.5773,-6.0756 -9.7093,-12.6328 -15.0785,-19.026 -19.4881,-23.2108 -42.7007,-49.7162 -45.8098,-57.3671 -3.6604,-9.0137 -2.7953,-15.6437 4.2811,-20.9778 5.1694,-3.8957 14.3721,-4.4999 23.9743,-3.8525 17.5134,1.1767 29.8359,5.5207 35.9151,8.1664 9.4773,3.3516 20.5137,8.6229 30.8722,16.2362 19.1171,14.0544 30.6476,34.1598 29.5398,60.7916 -0.6136,14.6771 -5.2943,29.224 -11.2148,42.9575 1.7357,2.4938 3.4749,5.0107 5.2195,7.5598 30.1373,44.0581 53.514,92.4723 53.514,92.4723 0,0 2.203,-14.8412 9.4203,-39.3864 3.6514,-12.4241 10.8562,-25.9757 17.335,-39.2686 -28.3375,-23.0253 -45.9115,-49.7788 -52.0139,-67.3314 -11.2826,-32.46 -2.4456,-47.1687 14.1295,-50.5169 7.508,-1.5182 18.1109,1.9226 26.0881,5.2991 9.9251,3.2911 21.8516,8.7728 32.9914,16.9608 19.117,14.0544 37.4973,33.7351 36.3896,60.3655 -0.5066,12.1245 -3.7942,24.158 -8.2554,35.7188 24.0206,10.0054 55.1212,15.569 94.7341,10.9436 84.9804,-9.9232 101.6518,-62.9842 98.4659,-85.1926 -3.1876,-22.2101 -21.0132,-34.4167 -26.9728,-38.1041 -5.9579,-3.6847 -7.7774,-4.964 -7.2762,-7.7059 0.7243,-3.985 3.4802,-3.8316 8.5605,-2.9754 6.9961,1.1811 44.6254,18.0646 46.2362,59.0583 2.046,52.0443 -47.8166,109.2116 -136.1398,108.7406"
         style="fill:#cf649a;fill-opacity:1;fill-rule:nonzero;stroke:none;stroke-width:0.17838"
         id="path3814" />
    </g>
    <g
       id="g5629"
       transform="matrix(0.85891552,0,0,0.85891552,28.490131,-84.107307)">
      <g
         id="g5624">
        <path
           d="m 90.29502,102.55695 -3.317875,-1.91558 a 0.2682875,0.2682875 0 0 0 -0.268552,0 l -3.317875,1.91558 a 0.26855208,0.26855208 0 0 0 -0.134408,0.23231 v 3.83116 c 0,0.0958 0.05133,0.18442 0.134408,0.23257 l 3.317875,1.91558 c 0.08308,0.0479 0.185208,0.0479 0.268552,0 l 3.317875,-1.91558 c 0.08308,-0.0479 0.134144,-0.13652 0.134144,-0.23257 v -3.83116 c 0,-0.0961 -0.05106,-0.18442 -0.134144,-0.23257 z"
           fill="#8080f2"
           id="path5428"
           style="stroke-width:0.264583" />
      </g>
      <path
         d="m 78.215997,104.30188 3.964517,-6.896896 c 0.143933,-0.249502 0.410104,-0.433387 0.697971,-0.433387 h 7.928768 c 0.288132,0 0.554038,0.183885 0.698236,0.433387 l 3.964252,6.881816 a 0.82020832,0.82020832 0 0 1 0,0.81333 l -3.964252,6.84053 c -0.144198,0.24924 -0.410104,0.37677 -0.698236,0.37677 h -7.928768 c -0.287867,0 -0.554038,-0.12356 -0.697971,-0.37306 l -3.964252,-6.85165 a 0.77787499,0.77787499 0 0 1 0,-0.79111 z m 3.282686,3.31629 c 0,0.1016 0.06112,0.19526 0.14896,0.24606 l 5.049838,2.91333 c 0.08784,0.0508 0.197908,0.0508 0.28575,0 l 5.053541,-2.91333 c 0.08784,-0.0508 0.149225,-0.14446 0.149225,-0.24606 v -5.82692 c 0,-0.10134 -0.06059,-0.19527 -0.148167,-0.24607 l -5.050102,-2.912793 a 0.28680833,0.28680833 0 0 0 -0.285485,0 l -5.054071,2.913063 c -0.08784,0.0508 -0.149754,0.14473 -0.149754,0.24606 v 5.82692 z"
         fill="#4b32c3"
         id="path5430"
         style="stroke-width:0.264583" />
    </g>
    <g
       id="Group"
       transform="matrix(0.07060672,0,0,0.07060672,124.77515,-1.8807792)">
      <path
         id="Rectangle"
         class="st0"
         d="m 155,40 h 10 c 2.8,0 5,2.2 5,5 0,2.8 -2.2,5 -5,5 h -10 c -2.8,0 -5,-2.2 -5,-5 0,-2.8 2.2,-5 5,-5 z" />
      <path
         id="Rectangle_1_"
         class="st1"
         d="m 5,200 h 50 c 2.8,0 5,2.2 5,5 0,2.8 -2.2,5 -5,5 H 5 c -2.8,0 -5,-2.2 -5,-5 0,-2.8 2.2,-5 5,-5 z" />
      <path
         id="Rectangle_2_"
         class="st2"
         d="m 125,120 h 30 c 2.8,0 5,2.2 5,5 0,2.8 -2.2,5 -5,5 h -30 c -2.8,0 -5,-2.2 -5,-5 0,-2.8 2.2,-5 5,-5 z" />
      <path
         id="Rectangle_3_"
         class="st1"
         d="m 65,120 h 40 c 2.8,0 5,2.2 5,5 0,2.8 -2.2,5 -5,5 H 65 c -2.8,0 -5,-2.2 -5,-5 0,-2.8 2.2,-5 5,-5 z" />
      <path
         id="Rectangle_4_"
         class="st0"
         d="m 5,120 h 40 c 2.8,0 5,2.2 5,5 0,2.8 -2.2,5 -5,5 H 5 c -2.8,0 -5,-2.2 -5,-5 0,-2.8 2.2,-5 5,-5 z" />
      <path
         id="Rectangle_5_"
         class="st2"
         d="m 5,160 h 50 c 2.8,0 5,2.2 5,5 0,2.8 -2.2,5 -5,5 H 5 c -2.8,0 -5,-2.2 -5,-5 0,-2.8 2.2,-5 5,-5 z" />
      <path
         id="Rectangle_6_"
         class="st2"
         d="m 5,80 h 50 c 2.8,0 5,2.2 5,5 0,2.8 -2.2,5 -5,5 H 5 C 2.2,90 0,87.8 0,85 0,82.2 2.2,80 5,80 Z" />
      <path
         id="Rectangle_7_"
         class="st3"
         d="m 55,20 h 100 c 2.8,0 5,2.2 5,5 0,2.8 -2.2,5 -5,5 H 55 c -2.8,0 -5,-2.2 -5,-5 0,-2.8 2.2,-5 5,-5 z" />
      <path
         id="Rectangle_8_"
         class="st1"
         d="m 5,20 h 30 c 2.8,0 5,2.2 5,5 0,2.8 -2.2,5 -5,5 H 5 C 2.2,30 0,27.8 0,25 0,22.2 2.2,20 5,20 Z" />
      <path
         id="Rectangle_9_"
         class="st3"
         d="m 45,180 h 10 c 2.8,0 5,2.2 5,5 0,2.8 -2.2,5 -5,5 H 45 c -2.8,0 -5,-2.2 -5,-5 0,-2.8 2.2,-5 5,-5 z" />
      <path
         id="Rectangle_10_"
         class="st0"
         d="m 45,60 h 10 c 2.8,0 5,2.2 5,5 0,2.8 -2.2,5 -5,5 H 45 c -2.8,0 -5,-2.2 -5,-5 0,-2.8 2.2,-5 5,-5 z" />
      <path
         id="Rectangle_11_"
         class="st0"
         d="m 5,180 h 20 c 2.8,0 5,2.2 5,5 0,2.8 -2.2,5 -5,5 H 5 c -2.8,0 -5,-2.2 -5,-5 0,-2.8 2.2,-5 5,-5 z" />
      <path
         id="Rectangle_12_"
         class="st3"
         d="m 5,60 h 20 c 2.8,0 5,2.2 5,5 0,2.8 -2.2,5 -5,5 H 5 C 2.2,70 0,67.8 0,65 0,62.2 2.2,60 5,60 Z" />
      <path
         id="Rectangle_13_"
         class="st4"
         d="m 135,180 h 10 c 2.8,0 5,2.2 5,5 0,2.8 -2.2,5 -5,5 h -10 c -2.8,0 -5,-2.2 -5,-5 0,-2.8 2.2,-5 5,-5 z" />
      <path
         id="Rectangle_14_"
         class="st4"
         d="m 75,180 h 40 c 2.8,0 5,2.2 5,5 0,2.8 -2.2,5 -5,5 H 75 c -2.8,0 -5,-2.2 -5,-5 0,-2.8 2.2,-5 5,-5 z" />
      <path
         id="Rectangle_15_"
         class="st4"
         d="m 165,180 h 40 c 2.8,0 5,2.2 5,5 0,2.8 -2.2,5 -5,5 h -40 c -2.8,0 -5,-2.2 -5,-5 0,-2.8 2.2,-5 5,-5 z" />
      <path
         id="Rectangle_16_"
         class="st0"
         d="m 85,100 h 80 c 2.8,0 5,2.2 5,5 0,2.8 -2.2,5 -5,5 H 85 c -2.8,0 -5,-2.2 -5,-5 0,-2.8 2.2,-5 5,-5 z" />
      <path
         id="Rectangle_17_"
         class="st3"
         d="m 35,100 h 30 c 2.8,0 5,2.2 5,5 0,2.8 -2.2,5 -5,5 H 35 c -2.8,0 -5,-2.2 -5,-5 0,-2.8 2.2,-5 5,-5 z" />
      <path
         id="Rectangle_18_"
         class="st1"
         d="m 5,100 h 10 c 2.8,0 5,2.2 5,5 0,2.8 -2.2,5 -5,5 H 5 c -2.8,0 -5,-2.2 -5,-5 0,-2.8 2.2,-5 5,-5 z" />
      <path
         id="Rectangle_19_"
         class="st2"
         d="m 95,40 h 40 c 2.8,0 5,2.2 5,5 0,2.8 -2.2,5 -5,5 H 95 c -2.8,0 -5,-2.2 -5,-5 0,-2.8 2.2,-5 5,-5 z" />
      <path
         id="Rectangle_20_"
         class="st0"
         d="m 5,40 h 70 c 2.8,0 5,2.2 5,5 0,2.8 -2.2,5 -5,5 H 5 C 2.2,50 0,47.8 0,45 0,42.2 2.2,40 5,40 Z" />
      <path
         id="Rectangle_21_"
         class="st3"
         d="m 35,140 h 90 c 2.8,0 5,2.2 5,5 0,2.8 -2.2,5 -5,5 H 35 c -2.8,0 -5,-2.2 -5,-5 0,-2.8 2.2,-5 5,-5 z" />
      <path
         id="Rectangle_22_"
         class="st2"
         d="m 5,140 h 10 c 2.8,0 5,2.2 5,5 0,2.8 -2.2,5 -5,5 H 5 c -2.8,0 -5,-2.2 -5,-5 0,-2.8 2.2,-5 5,-5 z" />
      <path
         id="Rectangle_23_"
         class="st1"
         d="m 125,60 h 50 c 2.8,0 5,2.2 5,5 0,2.8 -2.2,5 -5,5 h -50 c -2.8,0 -5,-2.2 -5,-5 0,-2.8 2.2,-5 5,-5 z" />
      <path
         id="Rectangle_24_"
         class="st3"
         d="m 125,80 h 50 c 2.8,0 5,2.2 5,5 0,2.8 -2.2,5 -5,5 h -50 c -2.8,0 -5,-2.2 -5,-5 0,-2.8 2.2,-5 5,-5 z" />
      <path
         id="Rectangle_25_"
         class="st0"
         d="m 5,0 h 120 c 2.8,0 5,2.2 5,5 0,2.8 -2.2,5 -5,5 H 5 C 2.2,10 0,7.8 0,5 0,2.2 2.2,0 5,0 Z" />
      <path
         id="Rectangle_26_"
         class="st4"
         d="m 145,0 h 60 c 2.8,0 5,2.2 5,5 0,2.8 -2.2,5 -5,5 h -60 c -2.8,0 -5,-2.2 -5,-5 0,-2.8 2.2,-5 5,-5 z" />
      <path
         id="Rectangle_27_"
         class="st4"
         d="m 145,140 h 20 c 2.8,0 5,2.2 5,5 0,2.8 -2.2,5 -5,5 h -20 c -2.8,0 -5,-2.2 -5,-5 0,-2.8 2.2,-5 5,-5 z" />
      <path
         id="Rectangle_28_"
         class="st4"
         d="m 185,140 h 20 c 2.8,0 5,2.2 5,5 0,2.8 -2.2,5 -5,5 h -20 c -2.8,0 -5,-2.2 -5,-5 0,-2.8 2.2,-5 5,-5 z" />
      <path
         id="Rectangle_29_"
         class="st4"
         d="m 175,120 h 30 c 2.8,0 5,2.2 5,5 0,2.8 -2.2,5 -5,5 h -30 c -2.8,0 -5,-2.2 -5,-5 0,-2.8 2.2,-5 5,-5 z" />
      <path
         id="Rectangle_30_"
         class="st4"
         d="m 175,20 h 30 c 2.8,0 5,2.2 5,5 0,2.8 -2.2,5 -5,5 h -30 c -2.8,0 -5,-2.2 -5,-5 0,-2.8 2.2,-5 5,-5 z" />
      <path
         id="Rectangle_31_"
         class="st4"
         d="m 185,100 h 20 c 2.8,0 5,2.2 5,5 0,2.8 -2.2,5 -5,5 h -20 c -2.8,0 -5,-2.2 -5,-5 0,-2.8 2.2,-5 5,-5 z" />
      <path
         id="Rectangle_32_"
         class="st4"
         d="m 185,40 h 20 c 2.8,0 5,2.2 5,5 0,2.8 -2.2,5 -5,5 h -20 c -2.8,0 -5,-2.2 -5,-5 0,-2.8 2.2,-5 5,-5 z" />
      <path
         id="Rectangle_33_"
         class="st4"
         d="m 195,60 h 10 c 2.8,0 5,2.2 5,5 0,2.8 -2.2,5 -5,5 h -10 c -2.8,0 -5,-2.2 -5,-5 0,-2.8 2.2,-5 5,-5 z" />
      <path
         id="Rectangle_34_"
         class="st4"
         d="m 195,80 h 10 c 2.8,0 5,2.2 5,5 0,2.8 -2.2,5 -5,5 h -10 c -2.8,0 -5,-2.2 -5,-5 0,-2.8 2.2,-5 5,-5 z" />
      <path
         id="Rectangle_35_"
         class="st4"
         d="m 115,160 h 90 c 2.8,0 5,2.2 5,5 0,2.8 -2.2,5 -5,5 h -90 c -2.8,0 -5,-2.2 -5,-5 0,-2.8 2.2,-5 5,-5 z" />
      <path
         id="Rectangle_36_"
         class="st4"
         d="m 75,160 h 20 c 2.8,0 5,2.2 5,5 0,2.8 -2.2,5 -5,5 H 75 c -2.8,0 -5,-2.2 -5,-5 0,-2.8 2.2,-5 5,-5 z" />
      <path
         id="Rectangle_37_"
         class="st4"
         d="m 155,200 h 50 c 2.8,0 5,2.2 5,5 0,2.8 -2.2,5 -5,5 h -50 c -2.8,0 -5,-2.2 -5,-5 0,-2.8 2.2,-5 5,-5 z" />
      <path
         id="Rectangle_38_"
         class="st4"
         d="m 75,200 h 60 c 2.8,0 5,2.2 5,5 0,2.8 -2.2,5 -5,5 H 75 c -2.8,0 -5,-2.2 -5,-5 0,-2.8 2.2,-5 5,-5 z" />
      <path
         id="Rectangle_39_"
         class="st4"
         d="m 75,60 h 30 c 2.8,0 5,2.2 5,5 0,2.8 -2.2,5 -5,5 H 75 c -2.8,0 -5,-2.2 -5,-5 0,-2.8 2.2,-5 5,-5 z" />
      <path
         id="Rectangle_40_"
         class="st4"
         d="m 75,80 h 30 c 2.8,0 5,2.2 5,5 0,2.8 -2.2,5 -5,5 H 75 c -2.8,0 -5,-2.2 -5,-5 0,-2.8 2.2,-5 5,-5 z" />
    </g>
    <g
       style="clip-rule:evenodd;fill-rule:evenodd;stroke-linejoin:round;stroke-miterlimit:1.41421"
       id="g7802"
       transform="matrix(0.00341192,0,0,0.00341192,80.512456,129.27425)">
      <g
         transform="scale(4.16667)"
         id="g7778">
        <path
   d="m 525.403,293.05 c -131.633,0 -251.228,15.825 -339.77,41.615 v 220.298 c 88.542,25.79 208.137,41.614 339.77,41.614 150.657,0 285.535,-20.729 376.134,-53.402 V 346.457 C 810.938,313.781 676.06,293.05 525.403,293.05 Z"
   style="fill:#8f1e1c;fill-rule:nonzero"
   id="path7748" />

        <path
   d="m 907.423,492.442 c -3.857,-10.663 -4.629,-24.154 -1.361,-37.162 5.85,-23.289 22.421,-36.198 37.013,-28.833 3.618,1.827 6.774,4.731 9.387,8.418 0.239,-0.001 0.478,0 0.715,0.016 0,0 44.552,53.106 3.313,116.003 -0.895,3.569 -76.534,91.718 -94.043,94.524 -11.46,1.836 14.891,-89.998 44.976,-152.966 z"
   style="fill:#8f1e1c;fill-rule:nonzero"
   id="path7750" />

        <path
   d="m 176.479,482.021 c 5.3,-9.63 7.158,-22.788 4.217,-36.425 -5.266,-24.416 -23.91,-41.11 -41.642,-37.285 -4.398,0.948 -8.325,3.072 -11.666,6.098 -0.282,-0.058 -0.564,-0.113 -0.845,-0.153 0,0 -56.292,41.952 -12.057,113.924 0.805,3.741 83.851,108.838 104.311,115.763 13.391,4.532 -11.247,-92.525 -42.318,-161.922 z"
   style="fill:#8f1e1c;fill-rule:nonzero"
   id="path7752" />

        <path
   d="m 97.467,488.066 0.007,0.015 c 0.185,0.145 0.357,0.276 -0.007,-0.015 z"
   style="fill:#e33a25;fill-rule:nonzero"
   id="path7754" />

        <path
   d="m 993.119,412.903 c -0.88,-3.064 -1.756,-6.126 -2.662,-9.162 l 30.683,-44.451 c 3.13,-4.522 3.77,-10.398 1.73,-15.555 -2.04,-5.13 -6.49,-8.81 -11.76,-9.71 l -51.886,-8.805 c -2.008,-4.102 -4.116,-8.142 -6.23,-12.15 l 21.797,-49.903 c 2.243,-5.087 1.769,-10.995 -1.203,-15.608 -2.961,-4.636 -7.99,-7.344 -13.349,-7.133 l -52.656,1.913 c -2.727,-3.55 -5.496,-7.068 -8.322,-10.521 l 12.101,-53.49 c 1.225,-5.433 -0.322,-11.118 -4.103,-15.064 -3.762,-3.932 -9.229,-5.559 -14.426,-4.283 l -51.289,12.608 c -3.321,-2.935 -6.699,-5.833 -10.114,-8.673 l 1.848,-54.914 c 0.198,-5.559 -2.393,-10.841 -6.844,-13.925 -4.446,-3.104 -10.093,-3.573 -14.956,-1.266 l -47.847,22.747 c -3.854,-2.21 -7.728,-4.4 -11.644,-6.517 l -8.455,-54.115 c -0.857,-5.482 -4.385,-10.138 -9.326,-12.265 -4.923,-2.138 -10.568,-1.448 -14.891,1.808 l -42.659,32.007 c -4.2,-1.396 -8.419,-2.733 -12.692,-4.011 L 645.578,21.148 c -1.87,-5.229 -6.181,-9.071 -11.438,-10.151 -5.239,-1.071 -10.63,0.743 -14.263,4.802 L 583.97,55.971 c -4.342,-0.5 -8.685,-0.956 -13.043,-1.332 L 543.204,7.926 c -2.81,-4.732 -7.77,-7.612 -13.116,-7.612 -5.334,0 -10.304,2.88 -13.09,7.612 l -27.733,46.713 c -4.358,0.376 -8.722,0.832 -13.056,1.332 l -35.91,-40.172 c -3.636,-4.059 -9.047,-5.873 -14.268,-4.802 -5.255,1.092 -9.573,4.922 -11.433,10.151 l -18.402,51.317 c -4.26,1.278 -8.481,2.627 -12.691,4.011 L 340.861,44.469 c -4.336,-3.266 -9.98,-3.955 -14.916,-1.808 -4.919,2.127 -8.461,6.783 -9.313,12.265 l -8.461,54.115 c -3.914,2.117 -7.789,4.294 -11.653,6.517 L 248.676,92.811 c -4.858,-2.315 -10.529,-1.838 -14.954,1.266 -4.445,3.084 -7.042,8.366 -6.84,13.925 l 1.835,54.914 c -3.405,2.84 -6.774,5.738 -10.112,8.673 l -51.279,-12.608 c -5.211,-1.265 -10.67,0.351 -14.441,4.283 -3.795,3.946 -5.332,9.631 -4.113,15.064 l 12.079,53.49 c -2.802,3.467 -5.575,6.971 -8.293,10.521 l -52.655,-1.913 c -5.315,-0.157 -10.387,2.497 -13.356,7.133 -2.975,4.613 -3.425,10.521 -1.211,15.608 l 21.814,49.903 c -2.119,4.008 -4.224,8.048 -6.249,12.15 l -51.883,8.805 c -5.271,0.888 -9.714,4.566 -11.764,9.71 -2.037,5.157 -1.376,11.033 1.735,15.555 l 30.69,44.451 c -0.237,0.784 -0.455,1.576 -0.69,2.364 l -16.863,17.912 45.341,64.049 c 0,0 435.152,200.732 838.797,3.396 46.108,-8.273 56.855,-78.559 56.855,-78.559 z"
   style="fill:#e43a25;fill-rule:nonzero"
   id="path7756" />

        <path
   d="m 608.303,376.759 c 0,0 48.157,-52.729 96.315,0 0,0 37.84,70.312 0,105.463 0,0 -61.917,49.217 -96.315,0 0,0 -41.279,-38.672 0,-105.463 z"
   style="fill:#030404;fill-rule:nonzero"
   id="path7758" />

        <path
   d="m 664.057,396.32 c 0,20.533 -12.103,37.179 -27.03,37.179 -14.924,0 -27.027,-16.646 -27.027,-37.179 0,-20.532 12.103,-37.18 27.027,-37.18 14.927,0 27.03,16.648 27.03,37.18 z"
   style="fill:#ffffff;fill-rule:nonzero"
   id="path7760" />

        <path
   d="m 393.365,362.361 c 0,0 82.608,-36.576 105.154,45.062 0,0 23.618,95.154 -67.837,100.525 0,0 -116.622,-22.462 -37.317,-145.587 z"
   style="fill:#030404;fill-rule:nonzero"
   id="path7762" />

        <path
   d="m 434.855,397.668 c 0,21.173 -12.48,38.346 -27.877,38.346 -15.391,0 -27.874,-17.173 -27.874,-38.346 0,-21.178 12.483,-38.346 27.874,-38.346 15.397,0 27.877,17.168 27.877,38.346 z"
   style="fill:#ffffff;fill-rule:nonzero"
   id="path7764" />

        <path
   d="m 111.602,499.216 c 10.967,-12.463 37.611,-27.557 35.57,-46.282 -3.653,-33.527 -31.456,-57.999 -62.099,-54.659 -7.6,0.828 -14.658,3.292 -20.924,7.036 -0.462,-0.107 -0.925,-0.211 -1.388,-0.294 0,0 -103.631,50.873 -44.564,152.657 0.557,5.137 117.848,155.668 150.788,167.131 21.559,7.502 -19.911,-128.64 -57.383,-225.589 z"
   style="fill:#e43a25;fill-rule:nonzero"
   id="path7766" />

        <path
   d="m 953.549,494.673 c -12.693,-10.7 -46.162,-20.418 -46.92,-39.238 -1.356,-33.698 22.512,-62.021 53.312,-63.26 7.638,-0.308 14.984,1.083 21.735,3.857 0.442,-0.174 0.884,-0.346 1.329,-0.497 0,0 110.025,34.951 66.695,144.366 0.21,5.163 -93.468,171.416 -124.345,187.635 -20.209,10.615 5.506,-131.431 28.194,-232.863 z"
   style="fill:#e43a25;fill-rule:nonzero"
   id="path7768" />

        <path
   d="m 191.142,495.558 c 0,0 -1.383,137.296 133.166,167.932 l 28.054,-56.363 c 0,0 -97.495,9.431 -104.995,-111.569 z"
   style="fill:#e43a25;fill-rule:nonzero"
   id="path7770" />

        <path
   d="m 876.362,495.558 c 0,0 1.382,137.296 -133.167,167.932 l -28.054,-56.363 c 0,0 97.495,9.431 104.995,-111.569 z"
   style="fill:#e43a25;fill-rule:nonzero"
   id="path7772" />

        <path
   d="m 779.167,635.591 c -20.25,-48.942 -85.595,-68.373 -145.951,-43.4 -53.126,21.981 -84.637,71.032 -77.624,115.845 41.946,-0.652 86.94,-3.371 130.736,-9.718 0,0 -25.837,41.763 -63.857,78.211 25.566,6.599 55.383,4.768 84.076,-7.104 60.357,-24.973 92.87,-84.893 72.62,-133.834 z"
   style="fill:#e43a25;fill-rule:nonzero"
   id="path7774" />

        <path
   d="m 404.746,695.984 c 0,0 55.203,7.295 130.67,9.156 6.61,-47.511 -29.38,-97.792 -86.801,-117.243 -63.438,-21.488 -128.989,2.792 -146.414,54.232 -17.425,51.44 19.876,110.56 83.314,132.049 28.121,9.526 56.653,10.049 81.229,3.207 -36.911,-36.505 -61.998,-81.401 -61.998,-81.401 z"
   style="fill:#e43a25;fill-rule:nonzero"
   id="path7776" />

    </g>
    </g>
    <text
       xml:space="preserve"
       style="font-style:normal;font-variant:normal;font-weight:normal;font-stretch:normal;font-size:4.38703px;line-height:1.25;font-family:monospace;-inkscape-font-specification:monospace;font-variant-ligatures:normal;font-variant-position:normal;font-variant-caps:normal;font-variant-numeric:normal;font-variant-alternates:normal;font-variant-east-asian:normal;font-feature-settings:normal;font-variation-settings:normal;text-indent:0;text-align:start;text-decoration-line:none;text-decoration-style:solid;text-decoration-color:#000000;letter-spacing:0px;word-spacing:0px;text-transform:none;writing-mode:lr-tb;direction:ltr;text-orientation:mixed;dominant-baseline:auto;baseline-shift:baseline;white-space:normal;opacity:1;vector-effect:none;fill:#000000;fill-opacity:1;stroke:none;stroke-width:0.109675;stroke-linecap:butt;stroke-linejoin:miter;stroke-miterlimit:4;stroke-dasharray:none;stroke-dashoffset:0;stroke-opacity:1;-inkscape-stroke:none;stop-color:#000000;stop-opacity:1"
       x="66.657082"
       y="103.54191"
       id="text16670"><tspan
         sodipodi:role="line"
         id="tspan16668"
         style="font-style:normal;font-variant:normal;font-weight:normal;font-stretch:normal;font-size:4.38703px;line-height:1.25;font-family:monospace;-inkscape-font-specification:monospace;font-variant-ligatures:normal;font-variant-position:normal;font-variant-caps:normal;font-variant-numeric:normal;font-variant-alternates:normal;font-variant-east-asian:normal;font-feature-settings:normal;font-variation-settings:normal;text-indent:0;text-align:start;text-decoration-line:none;text-decoration-style:solid;text-decoration-color:#000000;letter-spacing:0px;word-spacing:0px;text-transform:none;writing-mode:lr-tb;direction:ltr;text-orientation:mixed;dominant-baseline:auto;baseline-shift:baseline;white-space:normal;vector-effect:none;fill:#000000;fill-opacity:1;stroke:none;stroke-width:0.109675;stroke-linecap:butt;stroke-linejoin:miter;stroke-miterlimit:4;stroke-dasharray:none;stroke-dashoffset:0;stroke-opacity:1;-inkscape-stroke:none;stop-color:#000000;stop-opacity:1"
         x="66.657082"
         y="103.54191">build</tspan></text>
    <rect
       style="font-variation-settings:normal;opacity:1;vector-effect:none;fill:#fdffff;fill-opacity:1;stroke:#cccccc;stroke-width:0.855093;stroke-linecap:butt;stroke-linejoin:miter;stroke-miterlimit:4;stroke-dasharray:none;stroke-dashoffset:0;stroke-opacity:1;-inkscape-stroke:none;stop-color:#000000;stop-opacity:1"
       id="rect55-3-6-5-2-0"
       width="22.176296"
       height="7.5361791"
       x="49.894341"
       y="29.357244"
       ry="1.2748461" />
    <text
       xml:space="preserve"
       style="font-style:normal;font-variant:normal;font-weight:normal;font-stretch:normal;font-size:4.38703px;line-height:1.25;font-family:monospace;-inkscape-font-specification:monospace;font-variant-ligatures:normal;font-variant-position:normal;font-variant-caps:normal;font-variant-numeric:normal;font-variant-alternates:normal;font-variant-east-asian:normal;font-feature-settings:normal;font-variation-settings:normal;text-indent:0;text-align:start;text-decoration-line:none;text-decoration-style:solid;text-decoration-color:#000000;letter-spacing:0px;word-spacing:0px;text-transform:none;writing-mode:lr-tb;direction:ltr;text-orientation:mixed;dominant-baseline:auto;baseline-shift:baseline;white-space:normal;opacity:1;vector-effect:none;fill:#000000;fill-opacity:1;stroke:none;stroke-width:0.109675;stroke-linecap:butt;stroke-linejoin:miter;stroke-miterlimit:4;stroke-dasharray:none;stroke-dashoffset:0;stroke-opacity:1;-inkscape-stroke:none;stop-color:#000000;stop-opacity:1"
       x="55.837788"
       y="34.769196"
       id="text16670-6"><tspan
         sodipodi:role="line"
         id="tspan16668-2"
         style="font-style:normal;font-variant:normal;font-weight:normal;font-stretch:normal;font-size:4.38703px;line-height:1.25;font-family:monospace;-inkscape-font-specification:monospace;font-variant-ligatures:normal;font-variant-position:normal;font-variant-caps:normal;font-variant-numeric:normal;font-variant-alternates:normal;font-variant-east-asian:normal;font-feature-settings:normal;font-variation-settings:normal;text-indent:0;text-align:start;text-decoration-line:none;text-decoration-style:solid;text-decoration-color:#000000;letter-spacing:0px;word-spacing:0px;text-transform:none;writing-mode:lr-tb;direction:ltr;text-orientation:mixed;dominant-baseline:auto;baseline-shift:baseline;white-space:normal;vector-effect:none;fill:#000000;fill-opacity:1;stroke:none;stroke-width:0.109675;stroke-linecap:butt;stroke-linejoin:miter;stroke-miterlimit:4;stroke-dasharray:none;stroke-dashoffset:0;stroke-opacity:1;-inkscape-stroke:none;stop-color:#000000;stop-opacity:1"
         x="55.837788"
         y="34.769196">test</tspan></text>
    <rect
       style="font-variation-settings:normal;opacity:1;vector-effect:none;fill:#fdffff;fill-opacity:1;stroke:#cccccc;stroke-width:0.855093;stroke-linecap:butt;stroke-linejoin:miter;stroke-miterlimit:4;stroke-dasharray:none;stroke-dashoffset:0;stroke-opacity:1;-inkscape-stroke:none;stop-color:#000000;stop-opacity:1"
       id="rect55-3-6-5-2-0-6"
       width="22.176296"
       height="7.5361791"
       x="79.24292"
       y="28.948355"
       ry="1.2748461" />
    <text
       xml:space="preserve"
       style="font-style:normal;font-weight:normal;font-size:4.38703px;line-height:1.25;font-family:sans-serif;letter-spacing:0px;word-spacing:0px;fill:#000000;fill-opacity:1;stroke:none;stroke-width:0.109675"
       x="83.327576"
       y="34.094383"
       id="text16670-6-1"><tspan
         sodipodi:role="line"
         id="tspan16668-2-8"
         style="font-style:normal;font-variant:normal;font-weight:normal;font-stretch:normal;font-family:monospace;-inkscape-font-specification:monospace;stroke-width:0.109675"
         x="83.327576"
         y="34.094383">serve</tspan></text>
    <rect
       style="font-variation-settings:normal;opacity:1;vector-effect:none;fill:#fdffff;fill-opacity:1;stroke:#cccccc;stroke-width:0.855093;stroke-linecap:butt;stroke-linejoin:miter;stroke-miterlimit:4;stroke-dasharray:none;stroke-dashoffset:0;stroke-opacity:1;-inkscape-stroke:none;stop-color:#000000;stop-opacity:1"
       id="rect55-3-6-5-2-7"
       width="22.176296"
       height="7.5361791"
       x="106.66698"
       y="-32.394981"
       ry="1.2748461" />
    <text
       xml:space="preserve"
       style="font-style:normal;font-variant:normal;font-weight:normal;font-stretch:normal;font-size:4.38703px;line-height:1.25;font-family:monospace;-inkscape-font-specification:monospace;font-variant-ligatures:normal;font-variant-position:normal;font-variant-caps:normal;font-variant-numeric:normal;font-variant-alternates:normal;font-variant-east-asian:normal;font-feature-settings:normal;font-variation-settings:normal;text-indent:0;text-align:start;text-decoration-line:none;text-decoration-style:solid;text-decoration-color:#000000;letter-spacing:0px;word-spacing:0px;text-transform:none;writing-mode:lr-tb;direction:ltr;text-orientation:mixed;dominant-baseline:auto;baseline-shift:baseline;white-space:normal;opacity:1;vector-effect:none;fill:#000000;fill-opacity:1;stroke:none;stroke-width:0.109675;stroke-linecap:butt;stroke-linejoin:miter;stroke-miterlimit:4;stroke-dasharray:none;stroke-dashoffset:0;stroke-opacity:1;-inkscape-stroke:none;stop-color:#000000;stop-opacity:1"
       x="111.97829"
       y="-26.888107"
       id="text16670-0"><tspan
         sodipodi:role="line"
         id="tspan16668-9"
         style="font-style:normal;font-variant:normal;font-weight:normal;font-stretch:normal;font-size:4.38703px;line-height:1.25;font-family:monospace;-inkscape-font-specification:monospace;font-variant-ligatures:normal;font-variant-position:normal;font-variant-caps:normal;font-variant-numeric:normal;font-variant-alternates:normal;font-variant-east-asian:normal;font-feature-settings:normal;font-variation-settings:normal;text-indent:0;text-align:start;text-decoration-line:none;text-decoration-style:solid;text-decoration-color:#000000;letter-spacing:0px;word-spacing:0px;text-transform:none;writing-mode:lr-tb;direction:ltr;text-orientation:mixed;dominant-baseline:auto;baseline-shift:baseline;white-space:normal;vector-effect:none;fill:#000000;fill-opacity:1;stroke:none;stroke-width:0.109675;stroke-linecap:butt;stroke-linejoin:miter;stroke-miterlimit:4;stroke-dasharray:none;stroke-dashoffset:0;stroke-opacity:1;-inkscape-stroke:none;stop-color:#000000;stop-opacity:1"
         x="111.97829"
         y="-26.888107">lint</tspan></text>
    <text
       xml:space="preserve"
       transform="scale(0.26458333)"
       id="text20239"
       style="font-style:normal;font-weight:normal;font-size:40px;line-height:1.25;font-family:sans-serif;letter-spacing:0px;word-spacing:0px;white-space:pre;shape-inside:url(#rect20241);fill:#000000;fill-opacity:1;stroke:none" />
    <g
       id="g21214"
       transform="matrix(0.0529977,0,0,0.0529977,52.274282,60.466849)">
      <path
         d="m 239.97256,139.203 c 0,-14.534 -11.782,-26.316 -26.316,-26.316 -0.935,0 -1.857,0.05 -2.766,0.145 L 247.03556,6.427 H 93.431557 L 129.52556,112.94 c -0.529,-0.032 -1.061,-0.053 -1.599,-0.053 -14.534,0 -26.316,11.782 -26.316,26.316 0,11.748 7.699,21.694 18.326,25.078 -5.613,9.722 -12.675,18.478 -20.693003,26.042 -10.903,10.286 -23.381,18.085 -36.876,22.891 -16.068,-8.254 -23.656,-26.612 -16.809,-42.707 0.773,-1.817 1.562,-3.66 2.317,-5.494 11.64,-2.717 20.314,-13.153 20.314,-25.621 0,-14.534 -11.782,-26.316 -26.316,-26.316 -14.535,0 -26.317,11.782 -26.317,26.316 0,8.913 4.435,16.784 11.213,21.545 -6.514,14.831 -16.088,30.351 -19.071,48.339 -3.575,21.559 -0.011,44.443 18.634,57.366 43.424,30.096 90.560003,-18.657 140.259003,-30.913 18.011,-4.442 37.782,-3.726 53.651,-12.917 11.917,-6.902 19.773,-18.34 22.003,-31.182 2.202,-12.686 -1.009,-25.317 -8.393,-35.559 3.819,-4.568 6.12,-10.448 6.12,-16.868 z m -85.732,0.093 c 0,-0.031 0.003,-0.062 0.003,-0.093 0,-9.544 -5.082,-17.902 -12.686,-22.515 l 28.728,-58.091 28.778,58.707 c -7.067,4.718 -11.724,12.764 -11.724,21.899 0,0.192 0.011,0.381 0.015,0.572 z"
         fill="#c63d14"
         id="path21210" />
      <path
         d="m 246.39904,139.203 c 0,-15.985 -11.517,-29.323 -26.688,-32.172 L 256.00004,0 H 84.466036 l 36.344004,107.248 c -14.643,3.259 -25.627004,16.345 -25.627004,31.955 0,11.723 6.195004,22.02 15.480004,27.806 -4.466,6.653 -9.762,12.914 -15.831004,18.639 -9.624001,9.08 -20.347001,15.966 -31.907001,20.496 -11.643,-7.314 -16.564999,-21.106 -11.453,-33.122 l 0.400001,-0.94 c 0.25,-0.588 0.500999,-1.178 0.750999,-1.768 12.788,-4.459 21.993,-16.632 21.993,-30.922 0,-18.055 -14.688999,-32.743 -32.743999,-32.743 -18.055001,0 -32.7430005,14.688 -32.7430005,32.743 0,9.113 3.7450005,17.365 9.7729995,23.307 -1.093,2.33 -2.242,4.698 -3.422999,7.124 -5.5120005,11.321 -11.7590005,24.153 -14.1220005,38.402 -4.693,28.299 2.876,50.921 21.3129995,63.699 11.188,7.754 22.549,10.804 33.982,10.803 21.529,-10e-4 43.306,-10.816 64.606005,-21.396 15.341,-7.619 31.203,-15.498 46.872,-19.362 5.83,-1.438 11.829,-2.303 18.18,-3.219 12.594,-1.817 25.618,-3.695 37.154,-10.376 13.371,-7.745 22.525,-20.737 25.113,-35.644 2.222,-12.797 -0.453,-25.613 -6.975,-36.483 3.041,-4.968 4.797,-10.804 4.797,-17.044 z m -12.854,0 c 0,10.967 -8.922,19.89 -19.89,19.89 -10.966,0 -19.889,-8.923 -19.889,-19.89 0,-10.967 8.923,-19.889 19.889,-19.889 10.968,0 19.89,8.922 19.89,19.889 z m 4.524,-126.349 -32.045,94.513 c -1.389,0.333 -2.743,0.753 -4.058,1.258 l -31.656,-64.578 -31.748,64.196 c -1.372,-0.473 -2.784,-0.862 -4.232,-1.15 l -31.935,-94.239 z m -110.143,106.46 c 10.967,0 19.889,8.922 19.889,19.889 0,10.967 -8.922,19.89 -19.889,19.89 -10.966,0 -19.889,-8.923 -19.889,-19.89 0,-10.967 8.923,-19.889 19.889,-19.889 z m -86.054004,0.189 c 10.967999,0 19.89,8.922 19.89,19.889 0,10.967 -8.922001,19.89 -19.89,19.89 -10.966,0 -19.889001,-8.923 -19.889001,-19.89 0,-10.967 8.923001,-19.889 19.889001,-19.889 z m 194.040004,71.028 c -1.935,11.148 -8.821,20.887 -18.891,26.719 -9.387,5.437 -20.636,7.06 -32.546,8.777 -6.38,0.92 -12.978,1.872 -19.423,3.462 -17.042,4.202 -33.549,12.401 -49.512,20.33 -31.945005,15.867 -59.534004,29.569 -85.547004,11.54 -19.055,-13.206 -18.175,-37.641 -15.955001,-51.031 2.057001,-12.405 7.619,-23.83 12.998,-34.879 0.931001,-1.912 1.835001,-3.785 2.722,-5.646 2.668,1.067 5.505,1.794 8.462001,2.124 -5.475001,18.071 3.135999,37.719 21.208999,47.004 l 2.473,1.271 2.62,-0.933 c 14.288,-5.088 27.453001,-13.254 39.131005,-24.271 7.549,-7.121 14.036,-15 19.37,-23.419 1.6,0.241 3.237,0.368 4.903,0.368 18.055,0 32.744,-14.688 32.744,-32.744 0,-9.71 -4.253,-18.442 -10.989,-24.444 l 20.578,-41.612 20.787,42.405 c -6.237,5.966 -10.134,14.359 -10.134,23.651 0,18.056 14.688,32.744 32.743,32.744 6.937,0 13.372,-2.174 18.672,-5.868 3.68,7.533 5.051,16.009 3.585,24.452 z"
         fill="#ffffff"
         id="path21212" />
    </g>
    <rect
       style="fill:#fdffff;fill-opacity:1;stroke:#cccccc;stroke-width:0.855093;stroke-linecap:butt;stroke-linejoin:miter;stroke-miterlimit:4;stroke-dasharray:none;stroke-opacity:1"
       id="rect55-6-7-0"
       width="19.881285"
       height="20.222744"
       x="78.826775"
       y="57.847424"
       ry="3.4209492" />
    <text
       xml:space="preserve"
       transform="scale(0.26458333)"
       id="text24687"
       style="font-style:normal;font-weight:normal;font-size:40px;line-height:1.25;font-family:sans-serif;letter-spacing:0px;word-spacing:0px;white-space:pre;shape-inside:url(#rect24689);fill:#000000;fill-opacity:1;stroke:none" />
    <path
       style="font-variation-settings:normal;opacity:1;vector-effect:none;fill:#fdffff;fill-opacity:1;stroke:#cccccc;stroke-width:0.855093;stroke-linecap:butt;stroke-linejoin:miter;stroke-miterlimit:4;stroke-dasharray:none;stroke-dashoffset:0;stroke-opacity:1;-inkscape-stroke:none;stop-color:#000000;stop-opacity:1"
       d="M 59.779682,57.855184 V 36.926282"
       id="path26263" />
    <path
       style="font-variation-settings:normal;opacity:1;vector-effect:none;fill:#fdffff;fill-opacity:1;stroke:#cccccc;stroke-width:0.855093;stroke-linecap:butt;stroke-linejoin:miter;stroke-miterlimit:4;stroke-dasharray:none;stroke-dashoffset:0;stroke-opacity:1;-inkscape-stroke:none;stop-color:#000000;stop-opacity:1"
       d="M 88.887696,57.855185 V 36.926282"
       id="path26263-2" />
    <rect
       style="font-variation-settings:normal;opacity:1;vector-effect:none;fill:#242424;fill-opacity:1;stroke:none;stroke-width:0.855094;stroke-linecap:butt;stroke-linejoin:miter;stroke-miterlimit:4;stroke-dasharray:none;stroke-dashoffset:0;stroke-opacity:1;-inkscape-stroke:none;stop-color:#000000;stop-opacity:1"
       id="rect26982"
       width="15.335834"
       height="12.268667"
       x="80.889"
       y="62.004879"
       ry="3.4209566" />
    <path
       style="font-variation-settings:normal;opacity:1;vector-effect:none;fill:none;fill-opacity:1;stroke:#ffffff;stroke-width:0.835158;stroke-linecap:butt;stroke-linejoin:miter;stroke-miterlimit:4;stroke-dasharray:none;stroke-dashoffset:0;stroke-opacity:1;-inkscape-stroke:none;stop-color:#000000;stop-opacity:1"
       d="m 84.132054,65.612293 3.426539,2.738236 -3.709681,2.57624"
       id="path28069"
       sodipodi:nodetypes="ccc" />
    <path
       style="font-variation-settings:normal;opacity:1;vector-effect:none;fill:none;fill-opacity:1;stroke:#ffffff;stroke-width:0.835158;stroke-linecap:butt;stroke-linejoin:miter;stroke-miterlimit:4;stroke-dasharray:none;stroke-dashoffset:0;stroke-opacity:1;-inkscape-stroke:none;stop-color:#000000;stop-opacity:1"
       d="m 88.466712,71.386803 h 4.690959"
       id="path28854" />
  </g>
  <style
     id="style7214">.st0{fill:#56b3b4}.st1{fill:#ea5e5e}.st2{fill:#bf85bf}.st3{fill:#f7ba3e}.st4{opacity:.5;fill:#d0d4d8;enable-background:new}</style>
</svg>
