<svg xmlns="http://www.w3.org/2000/svg" viewBox="0 0 200 55" fill="none" stroke-width="2" stroke-linecap="round">
    <style>
      path {
        stroke: var(--color-fg-on-emphasis, #000);
      }
      #squiggles {
        stroke: var(--color-fg-muted, #777);
      }
    </style>
<path id="squiggles" d="M31,17c-2,1-2,2-3,3c-1,3,3,7,5,7c4-0,6-9,6-9c2,0,6,11-1,15 c-5,4-15,3-18-4c-3-6,2-13,7-15c1-0,5-2,8,0c4,2,5,8,3,12c-2,3-6,4-8,4 c-5,1-14,1-16-5c-2-5,2-11,5-14c5-4,12-6,18-3c6,3,7,11,7,14c0,2-0,4-0,5 c-1,3-2,6-2,6c-2,3-4,4-5,5c-7,4-17-4-23-6c-8-4,17-11,21-21
c3-6-23-9-23-7c-1,3,39,11,39,24c0,10-26,22-31,16C13,39,30,3,43,4c6,0,12,9,10,16 C49,30,16,35,8,26c-3-4-3-10,0-12c9-6,47,21,43,31c-3,8-30,11-38,0c-5-7,0-18,4-24 c5-7,16-14,27-12c2,0,11,2,14,10c2,5,1,13-5,16c-2,1-6,3-8,1 c-4-4,11-19,7-23C49,9,35,14,31,17z"/>
<path d="M71,6c-3,24,2,42,4,43c2,0,3-21,7-21c4,1,7,21,9,21c3-0,3-41,3-41 c0,0-0,27,1,33c3,13,13,8,14-3c1-11,3-18-1-18c-1,0-3,22,4,26c2,1,5,0,7-1 c7-6,4-24,6-24c6,0-3,9,1,9c3-0,9-8,5,2c-0,1-3,19-1,15c14-26,27-3,21-24 c-1-4-7,1-10,10c0,0-3,10,4,14c3,2,7,2,13,1c8-2,8-33,5-25c-2,6-3,30,10,26 c8-2,5-21,6-27c1-12-5,17,3,24c5,4,9,1,11-4"/>
<path d="M187,25c-10,4-12,2-16,0"/>
<ellipse cx="109" cy="14" rx="1" ry="1"/>
<ellipse cx="164" cy="14" rx="1" ry="1"/>
</svg>
