<svg xmlns="http://www.w3.org/2000/svg" viewBox="0 0 1200 450"><linearGradient id="b" x1="-6.56" x2="1243.71" y1="227.38" y2="227.38" gradientUnits="userSpaceOnUse"><stop stop-color="#bcd500"/><stop offset="1" stop-color="#00d7e7"/></linearGradient><clipPath id="a"><path d="M587.84 156.38h-30.67a4.28 4.28 0 0 0-4.28 4.28v63.91a4.28 4.28 0 0 0 4.28 4.28h23.33c19.37 0 33.76-4.17 42.75-12.39 7.16-6.55 10.79-15.37 10.79-26.21 0-21.2-23.49-33.87-46.2-33.87Zm26.81 50.68c-6.57 6.01-18.06 9.06-34.15 9.06h-11.1a3.78 3.78 0 0 1-3.78-3.78v-39.45a3.78 3.78 0 0 1 3.78-3.78h18.44c20.67 0 33.46 10.97 33.46 21.13 0 7.22-2.17 12.72-6.65 16.81Zm388.1-102.07v57.3a6.83 6.83 0 0 0 6.83 6.83h43.56a3.75 3.75 0 0 1 3.75 3.75v148.64a3.05 3.05 0 0 1-3.05 3.05h-63.85a3.05 3.05 0 0 1-3.05-3.05V105.08c0-3.82-3.1-6.92-6.92-6.92h-58.57a6.92 6.92 0 0 0-6.92 6.92v19.3c0 1.6-1.29 2.89-2.89 2.89h-37.96a2.89 2.89 0 0 1-2.89-2.89v-19.74c0-3.58-2.9-6.49-6.49-6.49H719.89a6.49 6.49 0 0 0-6.49 6.49v215.62a4.3 4.3 0 0 1-4.3 4.3h-10.83c-3.84 0-7.42-1.9-9.57-5.08l-32.15-47.58a6.33 6.33 0 0 1 1.33-8.52l.05-.04c22.15-17.46 34.34-43.42 34.34-73.09 0-51.64-45.87-92.09-104.42-92.09h-87.32a5.85 5.85 0 0 0-5.85 5.85v217.57a2.97 2.97 0 0 1-2.97 2.97h-17.49a2.97 2.97 0 0 1-2.97-2.97V104.14c0-3.3-2.68-5.98-5.98-5.98h-60.45a5.98 5.98 0 0 0-5.98 5.98v20.67c0 1.36-1.1 2.46-2.46 2.46h-18.24a2.46 2.46 0 0 1-2.46-2.46v-20.56a6.1 6.1 0 0 0-6.1-6.1h-54.1a6.11 6.11 0 0 0-5.98 4.85l-28.7 135.87c-.45 2.11-3.45 2.15-3.95.05l-31.49-130.99a10.16 10.16 0 0 0-9.87-7.78h-54.62c-4.65 0-8.7 3.16-9.84 7.66l-33.58 132.72c-.53 2.09-3.52 2.02-3.95-.09l-27.77-136.38a7.4 7.4 0 0 0-7.24-5.92H40.28a6.68 6.68 0 0 0-6.54 8.01l51.99 255.33a6.13 6.13 0 0 0 6.01 4.91h82.29a6.14 6.14 0 0 0 5.95-4.63l24.72-97.72c.7-2.77 4.65-2.75 5.31.03l23.37 97.61a6.14 6.14 0 0 0 5.97 4.71h82.07c2.9 0 5.4-2.03 6-4.86l46.45-218.54c.37-1.75 1.91-3 3.7-3h17.25a4 4 0 0 1 4 4v216.07a6.32 6.32 0 0 0 6.32 6.32h59.77a6.32 6.32 0 0 0 6.32-6.32v-19.82a2.97 2.97 0 0 1 2.97-2.97h17.49a2.97 2.97 0 0 1 2.97 2.97v19.82a6.32 6.32 0 0 0 6.32 6.32h58.32a6.32 6.32 0 0 0 6.32-6.32v-70.5a2.51 2.51 0 0 1 2.51-2.51h10.46c1.57 0 3.04.78 3.93 2.08l48.69 71.58a12.96 12.96 0 0 0 10.71 5.67h38.23c8.06 0 14.59-6.53 14.59-14.59v-10.22a4.3 4.3 0 0 1 4.3-4.3h10.05a4.3 4.3 0 0 1 4.3 4.3v18.49a6.32 6.32 0 0 0 6.32 6.32h144.74a6.32 6.32 0 0 0 6.32-6.32v-60.1a4.54 4.54 0 0 0-4.54-4.54h-78.35a3.53 3.53 0 0 1-3.53-3.53v-24.63a3.53 3.53 0 0 1 3.53-3.53h76.83a6.06 6.06 0 0 0 6.06-6.06v-58.84a6.06 6.06 0 0 0-6.06-6.06h-76.83a3.53 3.53 0 0 1-3.53-3.53v-13.5a6.65 6.65 0 0 1 6.65-6.65h73.71a6.06 6.06 0 0 0 6.06-6.06v-20.16c0-1.6 1.29-2.89 2.89-2.89h37.96c1.6 0 2.89 1.29 2.89 2.89v217.19a6.32 6.32 0 0 0 6.32 6.32h59.77a6.32 6.32 0 0 0 6.32-6.32v-19.74a3.05 3.05 0 0 1 3.05-3.05h63.85a3.05 3.05 0 0 1 3.05 3.05v19.74a6.32 6.32 0 0 0 6.32 6.32h59.41a6.32 6.32 0 0 0 6.32-6.32v-187.2a3.75 3.75 0 0 1 3.75-3.75h41.08a6.83 6.83 0 0 0 6.83-6.83v-58.01a6.12 6.12 0 0 0-6.12-6.12h-164.9a6.83 6.83 0 0 0-6.83 6.83ZM313.32 353.66h-66.1a3.37 3.37 0 0 1-3.29-2.6l-29.47-123.08a3.72 3.72 0 0 0-3.58-2.85l-6.55-.04a3.7 3.7 0 0 0-3.62 2.8L169.54 351.1a3.39 3.39 0 0 1-3.28 2.56H99.9c-1.61 0-3-1.13-3.32-2.71L48.43 113.67a2.32 2.32 0 0 1 2.27-2.78h40.93c1.45 0 2.7 1.02 2.99 2.44l32.51 159.66a3.67 3.67 0 0 0 3.6 2.94h8.04a3.67 3.67 0 0 0 3.56-2.77l39.72-156.99a4.34 4.34 0 0 1 4.21-3.28h43.77a4.34 4.34 0 0 1 4.22 3.33l37.67 156.69a3.95 3.95 0 0 0 3.83 3.02h7.04c1.86 0 3.47-1.3 3.86-3.13l33.65-159.31a3.29 3.29 0 0 1 3.22-2.61h36.74c1.49 0 2.69 1.2 2.69 2.69v11.15c0 1.4-1.13 2.53-2.53 2.53h-22.83a4.25 4.25 0 0 0-4.16 3.38L293 322.06a3.12 3.12 0 0 1-3.05 2.47h-20.03a3.13 3.13 0 0 1-3.03-2.37l-45.22-182.51a4.1 4.1 0 0 0-3.99-3.12H198.5a4.1 4.1 0 0 0-3.98 3.07l-47.63 182.59a3.12 3.12 0 0 1-3.02 2.33h-20.39a3.12 3.12 0 0 1-3.06-2.5L85.03 148.21a8.16 8.16 0 0 1 1.46-6.35 13.27 13.27 0 0 0-8.35-20.78 13.3 13.3 0 0 0-9.29 24.45 7.76 7.76 0 0 1 3.66 5.08l37.35 183.45a3.98 3.98 0 0 0 3.91 3.19h39.25a4 4 0 0 0 3.86-2.98l47.78-183.17a2.45 2.45 0 0 1 2.38-1.84h1.93c1.13 0 2.12.77 2.39 1.87l45.37 183.1a3.99 3.99 0 0 0 3.87 3.03h38.94a4 4 0 0 0 3.9-3.16l40.4-191.28a3.57 3.57 0 0 1 3.5-2.84h11.18a2.38 2.38 0 0 1 2.33 2.87l-44.23 208.1a3.38 3.38 0 0 1-3.31 2.68Zm100.74-242.77h40.1c2.4 0 4.34 1.94 4.34 4.34v206.7a2.62 2.62 0 0 1-2.62 2.62h-11.86a2.62 2.62 0 0 1-2.62-2.62V131.28c0-2.22-1.8-4.02-4.02-4.02h-22.87a2.95 2.95 0 0 1-2.95-2.95v-10.92a2.5 2.5 0 0 1 2.51-2.51Zm40.89 242.77h-39.68a3.73 3.73 0 0 1-3.73-3.73V143.22a3.21 3.21 0 0 1 3.21-3.21h10.68a3.21 3.21 0 0 1 3.21 3.21v188.46c0 3.1 2.52 5.62 5.62 5.62h20.68a3.54 3.54 0 0 1 3.54 3.54v9.29a3.54 3.54 0 0 1-3.54 3.54Zm52.45-239.48a3.3 3.3 0 0 1 3.3-3.3h77.14c51.41 0 91.69 34.86 91.69 79.35 0 25.69-10.47 48.1-29.49 63.09a83.09 83.09 0 0 1-5.45 3.94 10.92 10.92 0 0 0-3.01 15.21l33 48.84a2.07 2.07 0 0 1-1.72 3.23h-4.98c-6.67 0-12.91-3.3-16.67-8.82l-37.61-55.29-2.24-3.18a2.16 2.16 0 0 1 1.22-3.33c31.84-8.8 50.57-31.57 50.57-63.69 0-35.32-33.08-62.98-75.31-62.98H528.9a5.12 5.12 0 0 0-5.12 5.12v189.55a2.62 2.62 0 0 1-2.62 2.62h-11.14a2.62 2.62 0 0 1-2.62-2.62V114.19Zm73.1 131.04h-40.53a3.45 3.45 0 0 1-3.45-3.45v-97.98a3.8 3.8 0 0 1 3.79-3.79h47.54c30.76 0 62.58 18.79 62.58 50.24 0 34.43-26.14 54.98-69.92 54.98Zm97.97 108.44h-33.53a5.92 5.92 0 0 1-4.88-2.58l-47.6-69.98a15.45 15.45 0 0 0-12.78-6.76h-22.77a4.01 4.01 0 0 0-4.01 4.01v70.56a4.76 4.76 0 0 1-4.76 4.76h-36.72a4.01 4.01 0 0 1-4.01-4.01v-8.82a3.54 3.54 0 0 1 3.54-3.54h20.35a5.22 5.22 0 0 0 5.22-5.22v-70.65a3.45 3.45 0 0 1 3.45-3.45h48.9c5.48 0 11.14 5.28 14.26 9.72l39.99 58.8a24.71 24.71 0 0 0 20.42 10.81h14.92a3.54 3.54 0 0 1 3.54 3.54v9.29a3.54 3.54 0 0 1-3.54 3.54Zm52.9-242.77h123.12a3.54 3.54 0 0 1 3.54 3.54v9.29a3.54 3.54 0 0 1-3.54 3.54H747.54a5.04 5.04 0 0 0-5.04 5.04V321a3.54 3.54 0 0 1-3.54 3.54h-9.29a3.54 3.54 0 0 1-3.54-3.54V116.14c0-2.9 2.35-5.24 5.24-5.24Zm123.12 45.49h-78.05a4.83 4.83 0 0 0-4.83 4.83v39.5a4.83 4.83 0 0 0 4.83 4.83h77.57c2.22 0 4.02 1.8 4.02 4.02V247c0 2.22-1.8 4.02-4.02 4.02h-76.84a5.55 5.55 0 0 0-5.55 5.55v46.06a5.55 5.55 0 0 0 5.55 5.55h76.52c2.4 0 4.34 1.94 4.34 4.34v36.8c0 2.4-1.94 4.34-4.34 4.34H729.67a3.54 3.54 0 0 1-3.54-3.54v-9.29a3.54 3.54 0 0 1 3.54-3.54h85.55c3.99 0 7.85 1.4 10.94 3.93a13.26 13.26 0 0 0 21.58-8.78 13.3 13.3 0 0 0-21.73-11.69 16.75 16.75 0 0 1-10.8 3.81h-56.67a3.32 3.32 0 0 1-3.32-3.32v-81.82a3.32 3.32 0 0 1 3.32-3.32h80.86c1.86 0 3.36-1.5 3.36-3.36v-6.02c0-1.86-1.5-3.36-3.36-3.36h-80.86a3.32 3.32 0 0 1-3.32-3.32v-76.72a3.32 3.32 0 0 1 3.32-3.32h95.94a3.54 3.54 0 0 1 3.54 3.54v9.29a3.54 3.54 0 0 1-3.54 3.54Zm76.3-45.49h37.47a5.93 5.93 0 0 1 5.93 5.93v204.19a3.54 3.54 0 0 1-3.54 3.54h-10.02a3.54 3.54 0 0 1-3.54-3.54v-187.7a6.05 6.05 0 0 0-6.05-6.05h-20.25a3.54 3.54 0 0 1-3.54-3.54v-9.29a3.54 3.54 0 0 1 3.54-3.54Zm39.86 242.77h-39.6a3.8 3.8 0 0 1-3.81-3.81V143.91a3.9 3.9 0 0 1 3.91-3.91h9.29a3.9 3.9 0 0 1 3.91 3.91v187.45a5.93 5.93 0 0 0 5.93 5.93h20.36a3.54 3.54 0 0 1 3.54 3.54v9.29a3.54 3.54 0 0 1-3.54 3.54Zm193.5-197.28h-41.67a6.28 6.28 0 0 0-6.28 6.28v182.82a8.2 8.2 0 0 1-8.19 8.19h-34.85a3.54 3.54 0 0 1-3.54-3.54v-9.29a3.54 3.54 0 0 1 3.54-3.54h17.71a8.4 8.4 0 0 0 8.4-8.4V144.78a4.78 4.78 0 0 1 4.78-4.78h25.43a8.33 8.33 0 0 1 6.02 2.75 13.27 13.27 0 1 0 .07-18.3 8.68 8.68 0 0 1-6.23 2.82h-95.52a3.35 3.35 0 0 0-3.36 3.36v6.02c0 1.86 1.5 3.36 3.36 3.36h47.94a4.78 4.78 0 0 1 4.78 4.78v176.23a3.54 3.54 0 0 1-3.54 3.54h-9.84a3.54 3.54 0 0 1-3.54-3.54V162.66a6.28 6.28 0 0 0-6.28-6.28h-44.15a3.7 3.7 0 0 1-3.71-3.71V114.6a3.7 3.7 0 0 1 3.71-3.71h144.95a3.7 3.7 0 0 1 3.71 3.71v38.07a3.7 3.7 0 0 1-3.71 3.71Z"/></clipPath><path clip-path="url(#a)" fill="url(#b)" d="M-6.56 12.61h1250.27v429.55H-6.56z"/></svg>
