<svg xmlns="http://www.w3.org/2000/svg" viewBox="0 0 450 450"><clipPath id="b"><path d="M403.4 47.5a13.4 13.4 0 1 0-24.2 8 8 8 0 0 1 1.5 6.3L332 291.4a4 4 0 0 1-3.7 3h-66a3.7 3.7 0 0 1-3.7-3L229 167.7a3.8 3.8 0 0 0-3.6-2.9h-6.6a3.7 3.7 0 0 0-3.7 2.8l-31.3 123.9a4 4 0 0 1-3.7 2.8h-66.3a3.7 3.7 0 0 1-3.6-3L61.7 53c-.3-1.7 1-3.3 2.7-3.3h40.3c1.8 0 3.3 1.2 3.6 3L141 213c.3 1.7 1.9 3 3.7 3h8c1.7 0 3.2-1.2 3.6-2.8l40.1-158.7a4 4 0 0 1 3.7-2.8h45c1.8 0 3.3 1.2 3.7 2.9L286.9 213c.4 1.7 2 2.9 3.6 2.9h7.5c1.8 0 3.3-1.3 3.7-3l33.9-160.4c.3-1.7 1.8-3 3.6-3h9.2c2.4 0 4.2 2.3 3.7 4.6L308.2 262c-.3 1.7-1.9 3-3.6 3h-19.3a3.7 3.7 0 0 1-3.6-2.9L236.2 78.4a4 4 0 0 0-3.7-2.9h-20a3.7 3.7 0 0 0-3.5 2.8l-48 183.9a3.8 3.8 0 0 1-3.6 2.8h-19.6a3.7 3.7 0 0 1-3.7-3L98.4 86.7a8 8 0 0 1 1.4-6.1 13.3 13.3 0 0 0-8.5-20.8A13.4 13.4 0 0 0 82 84.6a8 8 0 0 1 3.9 5.2l37.6 185a4 4 0 0 0 3.7 3h40c1.7 0 3.2-1.2 3.6-2.8L219 90.5a2.8 2.8 0 0 1 2.8-2.1h1.4c1.3 0 2.4.9 2.7 2.1L271.6 275c.4 1.6 2 2.8 3.7 2.8h39.6c1.8 0 3.3-1.2 3.7-3l48.7-230.6a6 6 0 0 0-5.9-7.3h-32.6a3.7 3.7 0 0 0-3.7 3l-29 137.5c-.5 2.4-4 2.5-4.6 0L259 41.8a3.8 3.8 0 0 0-3.6-2.8H190a3.7 3.7 0 0 0-3.6 2.8L151.7 179c-.6 2.4-4 2.3-4.5-.1L118.8 39.8c-.3-1.7-1.8-3-3.6-3H51.9a5.3 5.3 0 0 0-5.2 6.4l53 261c.3 1.7 1.9 3 3.6 3h86.8c1.8 0 3.2-1.2 3.7-2.9l25.7-102c.6-2.3 4-2.3 4.6.1l24.4 101.9a3.7 3.7 0 0 0 3.6 2.8h86.6c1.8 0 3.3-1.2 3.7-3l51-240.1c.4-2 1.7-4 3.5-5 3.9-2.3 6.5-6.6 6.5-11.5Z"/></clipPath><linearGradient id="a" x1="-111.1" x2="538.9" y1="138.2" y2="138.2" gradientUnits="userSpaceOnUse"><stop stop-color="#bcd500"/><stop offset="1" stop-color="#00d7e7"/></linearGradient><path fill="url(#a)" d="M-111.1-79.3h650v435.1h-650z" clip-path="url(#b)"/><path fill="#fff" d="m111.1 376.6-10.9 39.3H85.7l-15.3-57.5v-6.9h13.2l10.2 44.2 11.8-44.2h12l11.5 44.2 10.6-44.2h12.5v6L136.7 416h-14.5l-11-39.3Zm55.2-25.1h14.2V416h-14.2v-64.4Zm28.3 64.4v-64.4h21.1c15 0 24.4 8 24.4 20.5a19 19 0 0 1-11.6 17.7l14.9 19.5v6.7H231l-16.5-22.7H209V416h-14.3Zm21-34.2c6.4 0 10.3-3.7 10.3-9.5 0-5-3.7-8.6-10.3-8.6h-7v18.1h7Zm39.8-30.2h40.4v12.1h-26.1v13.7h23.2v11.1h-23.2v15.4h26.2v12h-40.5v-64.3Zm53.9 0h14.2V416h-14.2v-64.4Zm43.7 12.1h-18.3v-12h51v12h-18.4V416H353v-52.3Z"/></svg>